<svg width="11px" height="14px" viewBox="0 0 11 14" version="1.1" xmlns="http://www.w3.org/2000/svg" xmlns:xlink="http://www.w3.org/1999/xlink">
    <g id="Page-1" stroke="none" stroke-width="1" fill="none" fill-rule="evenodd">
        <g id="Billing-w/-Dropdowns" transform="translate(-609.000000, -20.000000)" fill="#FFFFFF">
            <g id="Top-Menu">
                <g id="Account-Link" transform="translate(610.000000, 18.500000)">
                    <g id="Account-Icon" transform="translate(-0.000000, 2.000000)">
                        <path d="M4.48779298,12 C6.3068969,12 8.64352396,12.2607768 9.50000001,12 C9.50000001,9.51471863 7.48528139,7.5 5.00000001,7.5 C2.51471864,7.5 0.500000015,9.51471863 0.500000015,12 C1.17475879,11.8041081 3.0175098,12 4.48779298,12 Z" id="Body-Transparency" fill-opacity="0.2"></path>
                        <circle id="Head-Transparency" fill-opacity="0.2" cx="5.00000001" cy="3.5" r="2.5"></circle>
                        <path d="M9.02099241,12.6176471 L0.561198374,12.6176471 C0.252918699,12.6176471 -0.000288888889,12.349533 -0.000288888889,12.0208034 C-0.000288888889,9.21844362 2.14436585,6.94763271 4.79103902,6.94763271 C7.4377122,6.94763271 9.58236694,9.21844362 9.58236694,12.0208034 C9.58247967,12.3483811 9.33146482,12.6176471 9.02099241,12.6176471 Z M4.79115176,7.54447633 C2.45602764,7.54447633 0.563509485,9.54831908 0.563509485,12.0208034 C0.563509485,12.0196378 9.02104878,12.0208034 9.02104878,12.0208034 C9.01884702,9.54831908 7.12630407,7.54447633 4.79115176,7.54447633 Z M4.79115176,6.3507891 C3.23442114,6.3507891 1.97272358,5.01487403 1.97272358,3.36657102 C1.97272358,1.71826801 3.23442114,0.382352941 4.79115176,0.382352941 C6.34788238,0.382352941 7.60957995,1.71826801 7.60957995,3.36657102 C7.60957995,5.01487403 6.34788238,6.3507891 4.79115176,6.3507891 Z M4.79115176,5.75394548 C6.03633333,5.75394548 7.04589431,4.68499857 7.04589431,3.36657102 C7.04589431,2.04814347 6.03633333,0.979196557 4.79115176,0.979196557 C3.54597019,0.979196557 2.53640921,2.04814347 2.53640921,3.36657102 C2.53640921,4.68499857 3.54597019,5.75394548 4.79115176,5.75394548 Z" id="Shape" stroke="#FFFFFF" stroke-width="0.4" fill-rule="nonzero"></path>
                    </g>
                </g>
            </g>
        </g>
    </g>
</svg>
