<svg width="11px" height="14px" viewBox="0 0 11 14" version="1.1" xmlns="http://www.w3.org/2000/svg" xmlns:xlink="http://www.w3.org/1999/xlink">
    <g id="Page-1" stroke="none" stroke-width="1" fill="none" fill-rule="evenodd">
        <g id="Billing-w/-Dropdowns" transform="translate(-497.000000, -21.000000)" fill="#FFFFFF" fill-rule="nonzero" stroke="#FFFFFF" stroke-width="0.5">
            <g id="Top-Menu">
                <g id="Billing-Link" transform="translate(486.000000, 12.500000)">
                    <g id="Billing-Icon" transform="translate(12.000000, 9.000000)">
                        <polygon id="Shape" points="2.61805556 9.60338889 7.13194444 9.60338889 7.13194444 10.167625 2.61805556 10.167625"></polygon>
                        <path d="M4.59297222,8.19270833 L5.15720833,8.19270833 L5.15720833,7.30614444 C5.64245139,7.17989639 6.0035625,6.74190833 6.0035625,6.21788194 C6.0035625,5.59581389 5.49715833,5.08940972 4.87509028,5.08940972 C4.56404722,5.08940972 4.31085417,4.83692083 4.31085417,4.52517361 C4.31085417,4.21342639 4.56404722,3.9609375 4.87509028,3.9609375 L6.0035625,3.9609375 L6.0035625,3.39670139 L5.15720833,3.39670139 L5.15720833,2.55034722 L4.59297222,2.55034722 L4.59297222,3.43691111 C4.10772917,3.56315917 3.74661806,4.00114722 3.74661806,4.52517361 C3.74661806,5.14724167 4.25302222,5.65364583 4.87509028,5.65364583 C5.18613333,5.65364583 5.43932639,5.90613472 5.43932639,6.21788194 C5.43932639,6.52962917 5.18613333,6.78211806 4.87509028,6.78211806 L3.74661806,6.78211806 L3.74661806,7.34635417 L4.59297222,7.34635417 L4.59297222,8.19270833 Z" id="Shape"></path>
                        <path d="M0.0790833333,0.0111944444 L0.0790833333,12.988625 L9.67109722,12.988625 L9.67109722,2.43316667 L7.249125,0.0111944444 L0.0790833333,0.0111944444 Z M9.10686111,12.4243889 L0.643319444,12.4243889 L0.643319444,0.575430556 L7.01494444,0.575430556 L9.10686111,2.66734722 L9.10686111,12.4243889 Z" id="Shape"></path>
                    </g>
                </g>
            </g>
        </g>
    </g>
</svg>
