<svg width="17px" height="16px" viewBox="0 0 17 16" version="1.1" xmlns="http://www.w3.org/2000/svg" xmlns:xlink="http://www.w3.org/1999/xlink">
    <g id="Page-1" stroke="none" stroke-width="1" fill="none" fill-rule="evenodd">
        <g id="Billing-w/-Dropdowns" transform="translate(-733.000000, -20.000000)" fill="#FFFFFF" fill-rule="nonzero" stroke="#FFFFFF" stroke-width="0.3">
            <g id="Top-Menu">
                <g id="Help-Link" transform="translate(734.000000, 18.500000)">
                    <path d="M12.8028947,4.19631579 C11.3865789,2.78 9.50368421,2 7.5,2 C5.49631579,2 3.61342105,2.78 2.19710526,4.19631579 C0.780789474,5.61263158 0,7.49631579 0,9.5 C0,11.5036842 0.78,13.3873684 2.19710526,14.8036842 C3.61421053,16.22 5.49631579,17 7.5,17 C9.50368421,17 11.3865789,16.22 12.8028947,14.8036842 C14.2192105,13.3873684 15,11.5036842 15,9.5 C15,7.49631579 14.22,5.61263158 12.8028947,4.19631579 Z M12.5107895,13.9526316 L10.8221053,12.2639474 C11.4710526,11.4863158 11.8421053,10.5255263 11.8421053,9.5 C11.8421053,8.47447368 11.4710526,7.51447368 10.8221053,6.73605263 L12.5107895,5.04736842 C13.605,6.27657895 14.2105263,7.83973684 14.2105263,9.5 C14.2105263,11.1602632 13.605,12.7234211 12.5107895,13.9526316 Z M7.5,13.0526316 C6.55105263,13.0526316 5.65894737,12.6831579 4.98789474,12.0121053 C4.31684211,11.3410526 3.94736842,10.4489474 3.94736842,9.5 C3.94736842,8.55105263 4.31684211,7.65894737 4.98789474,6.98789474 C5.65894737,6.31684211 6.55105263,5.94736842 7.5,5.94736842 C8.44894737,5.94736842 9.34105263,6.31684211 10.0121053,6.98789474 C10.6831579,7.65894737 11.0526316,8.55105263 11.0526316,9.5 C11.0526316,10.4489474 10.6831579,11.3410526 10.0121053,12.0121053 C9.34105263,12.6831579 8.44894737,13.0526316 7.5,13.0526316 Z M11.9526316,4.48921053 L10.2639474,6.17789474 C9.48631579,5.52894737 8.52552632,5.15789474 7.5,5.15789474 C6.47447368,5.15789474 5.51447368,5.52894737 4.73605263,6.17789474 L3.04736842,4.48921053 C4.27657895,3.39421053 5.83973684,2.78947368 7.5,2.78947368 C9.16026316,2.78947368 10.7234211,3.39421053 11.9526316,4.48921053 Z M2.48921053,5.04736842 L4.17789474,6.73605263 C3.52894737,7.51368421 3.15789474,8.47447368 3.15789474,9.5 C3.15789474,10.5255263 3.52894737,11.4855263 4.17789474,12.2639474 L2.48921053,13.9526316 C1.395,12.7234211 0.789473684,11.1602632 0.789473684,9.5 C0.789473684,7.83973684 1.395,6.27657895 2.48921053,5.04736842 Z M3.04736842,14.5107895 L4.73605263,12.8221053 C5.51368421,13.4710526 6.47447368,13.8421053 7.5,13.8421053 C8.52552632,13.8421053 9.48552632,13.4710526 10.2639474,12.8221053 L11.9526316,14.5107895 C10.7234211,15.6057895 9.16026316,16.2105263 7.5,16.2105263 C5.83973684,16.2105263 4.27657895,15.6057895 3.04736842,14.5107895 Z" id="Help-Icon"></path>
                </g>
            </g>
        </g>
    </g>
</svg>
