<svg width="25px" height="17px" viewBox="0 0 25 17" version="1.1" xmlns="http://www.w3.org/2000/svg" xmlns:xlink="http://www.w3.org/1999/xlink">
    <g id="Page-1" stroke="none" stroke-width="1" fill="none" fill-rule="evenodd">
        <g id="Billing-w/-Dropdowns" transform="translate(-48.000000, -19.000000)" fill="#FFFFFF" fill-rule="nonzero">
            <g id="Top-Menu">
                <g id="Wht-Logo-+-Word-(Right)" transform="translate(48.000000, 19.000000)">
                    <g id="Logo">
                        <path d="M6.71875,11.7570093 L6.71875,13.8224299 C6.71875,14.348907 6.29901695,14.7757009 5.78125,14.7757009 L0.9375,14.7757009 C0.419733047,14.7757009 0,14.348907 0,13.8224299 L0,0.953271028 C0,0.426793977 0.419733047,0 0.9375,0 L5.78125,0 C5.83448628,0 5.88668617,0.00451195827 5.9375,0.0131803129 L5.9375,0 L19.0625,0 L19.0625,0.0131803129 C19.1133137,0.00451195827 19.1655138,0 19.21875,0 L24.0625,0 C24.5802669,0 25,0.426793977 25,0.953271028 L25,13.8224299 C25,14.348907 24.5802669,14.7757009 24.0625,14.7757009 L19.21875,14.7757009 C18.7009831,14.7757009 18.28125,14.348907 18.28125,13.8224299 L18.28125,11.7570093 L18.28125,7.78504673 C18.28125,7.25856968 17.8615169,6.8317757 17.34375,6.8317757 L7.65625,6.8317757 C7.13848305,6.8317757 6.71875,7.25856968 6.71875,7.78504673 L6.71875,11.7570093 Z M9.21875,8.42056075 L15.78125,8.42056075 C16.2990169,8.42056075 16.71875,8.84735472 16.71875,9.37383178 L16.71875,16.046729 C16.71875,16.5732059 16.2990169,17 15.78125,17 L9.21875,17 C8.70098305,17 8.28125,16.5732059 8.28125,16.046729 L8.28125,9.37383178 C8.28125,8.84735472 8.70098305,8.42056075 9.21875,8.42056075 Z" id="Mark"></path>
                    </g>
                </g>
            </g>
        </g>
    </g>
</svg>
