<svg width="16px" height="16px" viewBox="0 0 16 16" version="1.1" xmlns="http://www.w3.org/2000/svg" xmlns:xlink="http://www.w3.org/1999/xlink">
    <g id="Page-1" stroke="none" stroke-width="1" fill="none" fill-rule="evenodd">
        <g id="Billing-w/-Dropdowns" transform="translate(-314.000000, -242.000000)" fill="#FFFFFF" fill-rule="nonzero" stroke="#FFFFFF" stroke-width="0.5">
            <g id="Payment-Options" transform="translate(295.500000, 132.500000)">
                <g id="Add-Payment" transform="translate(19.000000, 107.000000)">
                    <g id="Plus-Icon" transform="translate(0.000000, 3.000000)">
                        <path d="M7.5,0.5 C3.64035556,0.5 0.5,3.64035556 0.5,7.5 C0.5,11.3596444 3.64035556,14.5 7.5,14.5 C11.3596444,14.5 14.5,11.3596444 14.5,7.5 C14.5,3.64035556 11.3596444,0.5 7.5,0.5 Z M7.5,13.7222222 C4.06922222,13.7222222 1.27777778,10.9307778 1.27777778,7.5 C1.27777778,4.06922222 4.06922222,1.27777778 7.5,1.27777778 C10.9307778,1.27777778 13.7222222,4.06922222 13.7222222,7.5 C13.7222222,10.9307778 10.9307778,13.7222222 7.5,13.7222222 Z" id="Shape"></path>
                        <path d="M9.83333333,7.11111111 L7.88888889,7.11111111 L7.88888889,5.16666667 C7.88888889,4.95156444 7.71510222,4.77777778 7.5,4.77777778 C7.28489778,4.77777778 7.11111111,4.95156444 7.11111111,5.16666667 L7.11111111,7.11111111 L5.16666667,7.11111111 C4.95156444,7.11111111 4.77777778,7.28489778 4.77777778,7.5 C4.77777778,7.71510222 4.95156444,7.88888889 5.16666667,7.88888889 L7.11111111,7.88888889 L7.11111111,9.83333333 C7.11111111,10.0484356 7.28489778,10.2222222 7.5,10.2222222 C7.71510222,10.2222222 7.88888889,10.0484356 7.88888889,9.83333333 L7.88888889,7.88888889 L9.83333333,7.88888889 C10.0484356,7.88888889 10.2222222,7.71510222 10.2222222,7.5 C10.2222222,7.28489778 10.0484356,7.11111111 9.83333333,7.11111111 Z" id="Shape"></path>
                    </g>
                </g>
            </g>
        </g>
    </g>
</svg>
