<svg width="18px" height="18px" viewBox="0 0 18 18" version="1.1" xmlns="http://www.w3.org/2000/svg" xmlns:xlink="http://www.w3.org/1999/xlink">
    <g id="Page-1" stroke="none" stroke-width="1" fill="none" fill-rule="evenodd">
        <g id="Billing-w/-Dropdowns" transform="translate(-212.000000, -19.000000)" fill="#F7CA02" fill-rule="nonzero">
            <g id="Top-Menu">
                <g id="Quote-Link" transform="translate(213.000000, 18.500000)">
                    <g id="Plus-Icon" transform="translate(0.000000, 1.000000)">
                        <path d="M12,0.5 L4,0.5 C1.8,0.5 0,2.3 0,4.5 L0,12.5 C0,14.7 1.8,16.5 4,16.5 L12,16.5 C14.2,16.5 16,14.7 16,12.5 L16,4.5 C16,2.3 14.2,0.5 12,0.5 Z M15,12.5 C15,14.2 13.7,15.5 12,15.5 L4,15.5 C2.3,15.5 1,14.2 1,12.5 L1,4.5 C1,2.8 2.3,1.5 4,1.5 L12,1.5 C13.7,1.5 15,2.8 15,4.5 L15,12.5 Z" id="Shape" stroke="#F7CA02" stroke-width="0.3"></path>
                        <path d="M10.3,7.8 L8.7,7.8 L8.7,6.2 C8.7,5.8 8.4,5.5 8,5.5 C7.6,5.5 7.3,5.8 7.3,6.2 L7.3,7.8 L5.7,7.8 C5.3,7.8 5,8.1 5,8.5 C5,8.9 5.3,9.2 5.7,9.2 L7.3,9.2 L7.3,10.8 C7.3,11.2 7.6,11.5 8,11.5 C8.4,11.5 8.7,11.2 8.7,10.8 L8.7,9.2 L10.3,9.2 C10.7,9.2 11,8.9 11,8.5 C11,8.1 10.7,7.8 10.3,7.8 Z" id="Shape"></path>
                    </g>
                </g>
            </g>
        </g>
    </g>
</svg>
