<svg width="14px" height="14px" viewBox="0 0 14 14" version="1.1" xmlns="http://www.w3.org/2000/svg" xmlns:xlink="http://www.w3.org/1999/xlink">
    <g id="Page-1" stroke="none" stroke-width="1" fill="none" fill-rule="evenodd" opacity="0.5">
        <g id="Billing-w/-Dropdowns" transform="translate(-1243.000000, -94.000000)" fill="#000000" fill-rule="nonzero" stroke="#FFFFFF" stroke-width="0.573040153">
            <g id="Header" transform="translate(48.000000, 80.000000)">
                <g id="Search" transform="translate(882.000000, 10.000000)">
                    <path d="M318.541962,4.5028203 C315.737646,4.5028203 313.445005,6.79546633 313.445005,9.59977794 C313.445005,12.404091 315.737646,14.6967476 318.541962,14.6967476 C319.622023,14.6967476 320.624639,14.3569604 321.451156,13.7785456 L324.800727,17.1327935 C325.151967,17.4840338 325.723726,17.4840338 326.074966,17.1327935 C326.426221,16.7815531 326.426221,16.2098094 326.074966,15.8585541 L322.720718,12.5089834 C323.299133,11.6824668 323.63892,10.6798353 323.63892,9.59977794 C323.63892,6.79546183 321.346264,4.5028203 318.541962,4.5028203 Z M318.541962,6.30174653 C320.374034,6.30174653 321.839994,7.76769151 321.839994,9.59977794 C321.839994,11.4318464 320.374034,12.8978213 318.541962,12.8978213 C316.709876,12.8978213 315.243931,11.4318464 315.243931,9.59977794 C315.243931,7.76768701 316.709876,6.30174653 318.541962,6.30174653 Z" id="Glass" transform="translate(319.891706, 10.949522) scale(-1, 1) translate(-319.891706, -10.949522) "></path>
                </g>
            </g>
        </g>
    </g>
</svg>
