<svg width="16px" height="14px" viewBox="0 0 16 14" version="1.1" xmlns="http://www.w3.org/2000/svg" xmlns:xlink="http://www.w3.org/1999/xlink">
    <g id="Page-1" stroke="none" stroke-width="1" fill="none" fill-rule="evenodd">
        <g id="Billing-w/-Dropdowns" transform="translate(-365.000000, -21.000000)" fill="#FFFFFF" fill-rule="nonzero" stroke="#FFFFFF" stroke-width="0.5">
            <g id="Top-Menu">
                <g id="Tracking-Link" transform="translate(365.000000, 18.500000)">
                    <path d="M5.15340905,3.10000002 C4.11056283,3.10000002 3.25757571,3.93557924 3.25757571,4.95714287 C3.25757571,5.97870651 4.11056283,6.81428573 5.15340905,6.81428573 C6.07910999,6.81428573 6.85400602,6.15677274 7.01684086,5.29480521 L12.9952651,5.29480521 C14.099364,5.29480521 14.9772727,6.15479742 14.9772727,7.23636365 C14.9772727,8.31792989 14.099364,9.17792209 12.9952651,9.17792209 L3.17140147,9.17792209 C1.69768405,9.17792209 0.499999955,10.3511637 0.499999955,11.7948052 C0.499999955,13.2384468 1.69768405,14.4116883 3.17140147,14.4116883 L7.25399238,14.4116883 L6.28990942,15.3560961 C6.22325882,15.4194078 6.18555759,15.5058021 6.18555759,15.5968156 C6.18488439,15.6871673 6.22191278,15.7742234 6.2878895,15.8381935 C6.35386622,15.9021653 6.44273427,15.9371185 6.53564045,15.9358343 C6.62787446,15.9344791 6.71607208,15.8968877 6.7800306,15.8309388 L8.32578969,14.3167259 C8.39109425,14.2534142 8.4281216,14.1670199 8.4281216,14.0766648 C8.4281216,13.9863098 8.39109425,13.8999155 8.32578969,13.8366038 L6.77465333,12.3171233 C6.76792105,12.3078902 6.76051541,12.2993166 6.75310977,12.2907434 C6.61173058,12.16412 6.39224651,12.1733534 6.26298514,12.3118473 C6.13372378,12.4503412 6.14314952,12.665346 6.28452871,12.7919694 L7.25398893,13.7363772 L3.17139802,13.7363772 C2.06729916,13.7363772 1.18939045,12.876385 1.18939045,11.7948187 C1.18939045,10.7132525 2.06729916,9.85326028 3.17139802,9.85326028 L12.9952617,9.85326028 C14.4689791,9.85326028 15.6666632,8.68001872 15.6666632,7.23637716 C15.6666632,5.7927356 14.4689791,4.61949404 12.9952617,4.61949404 L7.01683742,4.61949404 C6.85391467,3.75752651 6.07902037,3.10000002 5.1534056,3.10000002 L5.15340905,3.10000002 Z M5.15340905,3.77532469 C5.82394806,3.77532469 6.35984844,4.30028833 6.35984844,4.95714287 C6.35984844,5.61399742 5.82394806,6.13896106 5.15340905,6.13896106 C4.48287003,6.13896106 3.94696965,5.61399742 3.94696965,4.95714287 C3.94696965,4.30028833 4.48287003,3.77532469 5.15340905,3.77532469 Z M11.0132575,12.2168831 C9.97041132,12.2168831 9.1174242,13.0524624 9.1174242,14.074026 C9.1174242,15.0955896 9.97041132,15.9311688 11.0132575,15.9311688 C12.0561037,15.9311688 12.9090909,15.0955896 12.9090909,14.074026 C12.9090909,13.0524624 12.0561037,12.2168831 11.0132575,12.2168831 Z M11.0132575,12.8922078 C11.6837965,12.8922078 12.2196969,13.4171714 12.2196969,14.074026 C12.2196969,14.7308805 11.6837965,15.2558442 11.0132575,15.2558442 C10.3427185,15.2558442 9.80681814,14.7308805 9.80681814,14.074026 C9.80681814,13.4171714 10.3427185,12.8922078 11.0132575,12.8922078 Z" id="Tracking-Icon"></path>
                </g>
            </g>
        </g>
    </g>
</svg>
